<?xml version="1.0" standalone="no"?><!DOCTYPE svg PUBLIC "-//W3C//DTD SVG 1.1//EN" "http://www.w3.org/Graphics/SVG/1.1/DTD/svg11.dtd"><svg t="1668784224779" class="icon" viewBox="0 0 1024 1024" version="1.1" xmlns="http://www.w3.org/2000/svg" p-id="18984" xmlns:xlink="http://www.w3.org/1999/xlink" width="200" height="200"><path d="M941.9 493.8l-379-379-22.6-22.7a40.1 40.1 0 0 0-56.6 0l-22.6 22.7-379 379a3.9 3.9 0 0 0 0 5.6l45.2 45.3a4.2 4.2 0 0 0 5.7 0l59-59v369.9a40 40 0 0 0 40 40h176a4 4 0 0 0 4-4V713.5a42 42 0 0 1 42-41.9h116a42 42 0 0 1 42 41.9v178.1a4 4 0 0 0 4 4h176a40 40 0 0 0 40-40V485.7l59 59a4.2 4.2 0 0 0 5.7 0l45.2-45.3a3.9 3.9 0 0 0 0-5.6z" p-id="18985" fill="#bfbfbf"></path></svg>