<?xml version="1.0" standalone="no"?><!DOCTYPE svg PUBLIC "-//W3C//DTD SVG 1.1//EN" "http://www.w3.org/Graphics/SVG/1.1/DTD/svg11.dtd"><svg t="1668784185977" class="icon" viewBox="0 0 1194 1024" version="1.1" xmlns="http://www.w3.org/2000/svg" p-id="7995" xmlns:xlink="http://www.w3.org/1999/xlink" width="233.203125" height="200"><path d="M1120 42.666667H74.666667A10.666667 10.666667 0 0 0 64 53.333333v85.333334c0 5.888 4.778667 10.666667 10.666667 10.666666h1045.333333a10.666667 10.666667 0 0 0 10.666667-10.666666v-85.333334A10.666667 10.666667 0 0 0 1120 42.666667z m0 832H74.666667a10.666667 10.666667 0 0 0-10.666667 10.666666v85.333334c0 5.888 4.778667 10.666667 10.666667 10.666666h1045.333333a10.666667 10.666667 0 0 0 10.666667-10.666666v-85.333334a10.666667 10.666667 0 0 0-10.666667-10.666666z m0-416H74.666667A10.666667 10.666667 0 0 0 64 469.333333v85.333334c0 5.888 4.778667 10.666667 10.666667 10.666666h1045.333333a10.666667 10.666667 0 0 0 10.666667-10.666666v-85.333334a10.666667 10.666667 0 0 0-10.666667-10.666666z" fill="#ffffff" p-id="7996"></path></svg>