<?xml version="1.0" standalone="no"?><!DOCTYPE svg PUBLIC "-//W3C//DTD SVG 1.1//EN" "http://www.w3.org/Graphics/SVG/1.1/DTD/svg11.dtd"><svg t="1668784275185" class="icon" viewBox="0 0 1024 1024" version="1.1" xmlns="http://www.w3.org/2000/svg" p-id="19298" xmlns:xlink="http://www.w3.org/1999/xlink" width="200" height="200"><path d="M512 59C264.6 59 64 259.6 64 507a446.7 446.7 0 0 0 100 282.2c19.6 24.1-58.2 149.8-34.1 169.4 5.6 4.5 13.7 6.4 23.6 6.4 47.3 0 135.3-42.9 180.5-42.9 5.9 0 11.1 0.7 15.3 2.4A448.5 448.5 0 0 0 512 954.9c247.4 0 448-200.5 448-447.9S759.4 59 512 59z m265.9 713.8a376.7 376.7 0 0 1-402.4 84.6 115.2 115.2 0 0 0-41.5-7.3c-33.5 0-70.8 11.9-110.2 24.5l-1.5 0.5c4.3-11.9 8.3-23.6 11.2-34.9 3.9-14.9 15.8-60.2-13.6-96.4a376.3 376.3 0 1 1 558 29zM312 450a58 58 0 1 0 58 58 58 58 0 0 0-58-58z m200 0a58 58 0 1 0 58 58 58 58 0 0 0-58-58z m200 0a58 58 0 1 0 58 58 58 58 0 0 0-58-58z" p-id="19299" fill="#ffffff"></path></svg>