<svg width="15133" height="5761" xmlns="http://www.w3.org/2000/svg" text-rendering="geometricPrecision" shape-rendering="geometricPrecision" image-rendering="optimizeQuality" fill-rule="evenodd" clip-rule="evenodd">

 <g>
  <title>Layer 1</title>
  <path id="svg_1" fill="#ffffff" stroke-width="7.62" stroke="#2B2A29" d="m2895.66667,4057.66667l0,-518c0,-1447 484,-1603 1165,-1619c50,-83 26,-135 -63,-242c-165,-120 -275,-331 -275,-571c0,-373 265,-676 591,-676c327,0 592,303 592,676c0,244 -113,457 -282,576c-86,103 -104,155 -53,237c543,14 961,117 1106,897c74,174 288,572 509,26c137,-825 562,-931 1117,-945c50,-83 26,-135 -63,-242c-165,-120 -275,-331 -275,-571c0,-216 89,-409 228,-533c-173,119 -300,162 -278,280c-7,-159 110,-289 253,-365c-119,19 -196,36 -215,121c138,-359 711,-245 945,-56c152,122 251,324 251,553c0,244 -113,457 -282,576c-86,103 -104,155 -53,237c555,14 979,122 1115,950c87,189 297,525 510,-45c148,-769 565,-871 1106,-884c50,-83 26,-135 -63,-242c-165,-120 -275,-331 -275,-571c0,-128 31,-247 85,-349l0,-263l-442,114l295,-437l1467,-162l16,30l-88,88l-15,602c0,175 97,529 -59,529l-29,0c-27,0 -45,-10 -57,-26c-31,190 -132,352 -272,450c-86,103 -104,155 -53,237c679,17 1162,174 1162,1619l0,527c-2991,-1192 -6339,-1197 -9323,-8l2,0zm11593,1262c69,45 138,91 206,138l3,2c71,49 142,98 212,149l1,1c71,51 141,102 211,155c-2556,-1953 -12573,-1945 -15129,0c69,-52 139,-104 208,-155l2,-2c70,-50 139,-100 210,-149l3,-2c58,-41 117,-81 176,-120l11,-5c4176,-2713 9659,-2710 13875,-16l10,5l1,-1zm-3978,-3071l402,0c50,0 101,-63 113,-140s-19,-140 -69,-140l-403,0c-50,0 -101,63 -113,140s19,140 69,140l1,0zm359,0l0,12l-361,-5c-86,377 -220,960 -220,960s83,-70 188,-61s43,114 184,114c140,0 118,-87 184,-74s26,-945 26,-945l-1,-1zm-6974,-212c86,130 364,607 527,1035l-107,-878l-126,-144l-295,-13l1,0zm771,1037c53,-329 88,-714 36,-1001l-173,-8l-63,124l200,885zm3179,-676l499,0l0,108l-499,0l0,-108zm3477,-1608c30,64 51,134 62,208c15,-69 35,-139 43,-190c33,-190 11,-408 11,-605l-244,194l128,393z" class="fil0 str0"/>
 </g>
</svg>