<?xml version="1.0" standalone="no"?><!DOCTYPE svg PUBLIC "-//W3C//DTD SVG 1.1//EN" "http://www.w3.org/Graphics/SVG/1.1/DTD/svg11.dtd"><svg t="1668783692390" class="icon" viewBox="0 0 1024 1024" version="1.1" xmlns="http://www.w3.org/2000/svg" p-id="4893" xmlns:xlink="http://www.w3.org/1999/xlink" width="200" height="200"><path d="M907.995429 799.524571a427.446857 427.446857 0 0 0-92.16-136.557714 429.348571 429.348571 0 0 0-136.557715-92.16l-1.316571-0.512a283.355429 283.355429 0 1 0-331.922286 0.146286l-1.316571 0.512c-51.2 21.650286-97.206857 52.589714-136.630857 92.16a429.348571 429.348571 0 0 0-125.805715 294.4 9.142857 9.142857 0 0 0 9.142857 9.362286h68.608a9.142857 9.142857 0 0 0 9.142858-8.923429 340.699429 340.699429 0 0 1 100.278857-233.472A340.626286 340.626286 0 0 1 512 623.908571c91.648 0 177.737143 35.693714 242.541714 100.498286a340.699429 340.699429 0 0 1 100.278857 233.472 9.069714 9.069714 0 0 0 9.216 8.923429h68.534858c5.12 0 9.289143-4.242286 9.142857-9.362286a425.910857 425.910857 0 0 0-33.645715-157.988571zM512 537.161143a195.291429 195.291429 0 0 1-138.971429-57.636572 195.291429 195.291429 0 0 1-57.563428-138.971428c0-52.443429 20.48-101.814857 57.563428-138.971429A195.291429 195.291429 0 0 1 512 144.091429c52.443429 0 101.814857 20.48 138.971429 57.563428a195.291429 195.291429 0 0 1 57.563428 138.971429 195.291429 195.291429 0 0 1-57.563428 138.971428 195.291429 195.291429 0 0 1-138.971429 57.636572z" fill="#bfbfbf" p-id="4894"></path></svg>