<?xml version="1.0" standalone="no"?><!DOCTYPE svg PUBLIC "-//W3C//DTD SVG 1.1//EN" "http://www.w3.org/Graphics/SVG/1.1/DTD/svg11.dtd"><svg t="1668841765322" class="icon" viewBox="0 0 1024 1024" version="1.1" xmlns="http://www.w3.org/2000/svg" p-id="1657" width="128" height="128" xmlns:xlink="http://www.w3.org/1999/xlink"><path d="M891.5456 644.4032c0.4096-0.9728 0.7168-1.9968 1.024-2.9696a396.68736 396.68736 0 0 0 22.4768-131.6864 396.2368 396.2368 0 0 0-35.6864-164.5056c-0.512-1.4336-1.1264-2.7648-1.8432-4.096-63.5904-135.5776-201.3696-229.7344-360.7552-229.7344-55.7056 0-108.6976 11.52-156.8768 32.256-1.3824 0.4608-2.6624 1.0752-3.9424 1.792-98.816 43.776-176.64 126.5664-213.7088 228.7616-0.512 1.1264-0.8704 2.3552-1.2288 3.584a396.7232 396.7232 0 0 0-22.5792 131.9424c0 57.3952 12.288 111.9232 34.2528 161.28 0.6144 1.8944 1.3824 3.6864 2.4576 5.4272 44.032 95.0784 124.3648 170.0352 223.232 206.7968 0.3584 0.1536 0.7168 0.3072 1.1264 0.4608a396.4928 396.4928 0 0 0 137.2672 24.4224c59.392 0 115.712-13.1584 166.4-36.5568 1.28-0.4608 2.56-1.024 3.7888-1.6896 94.6176-45.0048 168.8064-126.1056 204.5952-225.4848z m-211.7632 171.6736l-148.2752-150.5792c1.2288-0.1024 2.4576-0.256 3.6864-0.4096 2.2528 0.6656 4.608 1.1264 7.1168 1.1264h0.512l286.464-5.5808c-32.1024 66.304-84.736 120.832-149.504 155.4432zM187.2896 619.008a345.78944 345.78944 0 0 1-17.7152-109.2608c0-34.56 5.12-67.9424 14.592-99.4304l211.2512 0.7168c-9.6256 11.776-17.5616 24.9856-23.3984 39.2704L187.2896 619.008z m224.1536-109.2608c0-58.0608 47.2064-105.2672 105.2672-105.2672s105.2672 47.2064 105.2672 105.2672-47.2064 105.2672-105.2672 105.2672-105.2672-47.2064-105.2672-105.2672z m222.976 103.0656l211.4048-213.2992a346.30656 346.30656 0 0 1 18.0736 110.2848c0 34.5088-5.12 67.7888-14.5408 99.2768l-215.3472 4.1984c0.1024-0.1024 0.2048-0.2048 0.256-0.3072 0-0.1024 0.1024-0.1024 0.1536-0.1536z m189.6448-264.1408l-151.0912 152.4736c-0.2048-3.7376-0.5632-7.4752-1.024-11.1616l1.1776-289.9968a349.77792 349.77792 0 0 1 150.9376 148.6848z m-202.1376-169.6768l-0.8704 214.3232a153.3952 153.3952 0 0 0-9.9328-8.192l-197.632-206.7968a345.47712 345.47712 0 0 1 103.168-15.6672c36.7104 0 72.0896 5.7344 105.2672 16.3328z m-259.4816 19.9168l147.6608 154.5216c-13.5168 0.5632-26.5728 2.816-39.0144 6.656l-267.1104-0.9216c33.536-69.376 89.5488-125.9008 158.464-160.256z m-154.0096 470.1184l153.0368-139.776c1.536 12.3904 4.5056 24.32 8.8064 35.584l-5.888 256.7168c-66.8672-32.768-121.7024-86.4768-155.9552-152.5248z m206.6944 172.6464l4.8128-209.1008c6.656 5.2736 13.7728 10.0352 21.248 14.1824l188.2624 191.232a345.4464 345.4464 0 0 1-112.7424 18.8928c-35.328 0-69.4272-5.3248-101.5808-15.2064z" fill="#2c2c2c" p-id="1658"></path></svg>